<?xml version="1.0" encoding="UTF-8"?>
<svg id="Layer_1" data-name="Layer 1" xmlns="http://www.w3.org/2000/svg" viewBox="0 0 1183.36 706.41">
  <defs>
    <style>
      .cls-1 {
        fill: #000;
        stroke-width: 0px;
      }
    </style>
  </defs>
  <g>
    <path id="circle-2" class="cls-1" d="M518.05,377.54c3.1,11.38,7.42,21.62,12.88,31.35,7.97,14.2,14.66,28.83,16.72,45.21.17,1.39,1.23,2.67,2.26,4.81,17.46-11.62,36.35-18.03,56.93-19.15,20.71-1.13,40.02,4.1,57.85,13.17,2.99-1.28,2.99-3.5,3.32-5.42,3.56-20.16,14.99-34.87,31.56-46.2,10.86-7.43,21.33-15.4,30.64-24.77,11.88-11.96,21.47-25.62,27.95-41.11,12.41-29.67,31.01-54.93,53.43-77.62,3.99-4.03,6.62-9.46,12.11-12.46,2.34,3.04.04,4.99-1.03,6.97-4.44,8.28-9.98,15.82-15.77,23.18-2.78,3.53-3.05,6.55-.88,10.94,14.19,28.81,18.38,59.42,16.27,91.3-1.94,29.27-9.38,57-23.65,82.4-31.66,56.35-78.72,92.61-143.8,99.6-83.11,8.93-146.88-25.41-186.57-97.82-38.17-69.64-33.6-139.94,10.92-206.57,5.39-8.06,11.72-15.62,20.04-21.91,3.52,5.61,2.92,11.32,3.17,16.63,1.8,39.41,5.48,78.6,12.87,117.38.61,3.21,1.71,6.33,2.74,10.09l.03-.02Z"/>
    <path id="palm-2" class="cls-1" d="M565.93,315.18c29.19-46.34,70.92-74.79,122.33-89.79,18-5.25,36.36-9.08,55.32-6.12,10.37,1.62,18.61-2.88,26.8-8.18,16.85-10.92,34.75-18.67,55.44-17.57,3.98.21,7.86.54,11.59,3.74-3.56,2.57-7.14,2.68-10.46,2.87-14.23.84-27.16,5.64-39.37,12.6-8.34,4.76-16.63,9.65-24.65,14.93-16.14,10.64-33.4,19.06-51.52,25.5-41.1,14.61-63.67,45.39-76.23,85.36-3.68,11.71-5.3,23.64-5.01,35.89.05,2.38.78,5.04-2.89,7.95-9.5-23.21-9.99-46.59-6.86-72.03-35.32,12.75-60.01,34.96-77.76,65.96,2.49-22.38,12.19-41.72,23.27-61.12h-.02Z"/>
    <path id="fin4-2" class="cls-1" d="M792.34,54.32c-.4,2.49-1.27,4.89-2.07,7.95-12.27,43.88-24.42,87.14-36.6,130.4-.2.65-.88,1.17-1.96,2.57-8.13-5.38-16.45-10.49-25.33-14.6-10.68-4.95-10.64-5.02-7.26-16.69,10.91-37.61,22.17-75.1,34.39-112.29,2.31-7.06,5.26-13.84,12.65-17.16,6.38-2.89,12.93-3.4,18.66,1.11,5.94,4.65,8.73,11.04,7.51,18.73v-.02Z"/>
    <path id="fin1-2" class="cls-1" d="M539.94,184.27c.65,2.8.6,4.95-.33,6.8-11.64,6.6-22.62,14.37-32.82,23.13-1.73-.18-2.62-2.09-3.09-5.38-2.31-15.99-4.71-31.95-6.91-47.96-2.08-15.19-3.91-30.42-5.97-45.62-.94-7.05-1.37-14.08-.36-21.78,3.36-7.84,8.76-12.04,16.73-11.48,8.49.58,12.93,6.36,15.05,13.97,5.59,19.97,8.04,40.59,12.46,60.81,1.99,9.11,3.09,18.42,5.24,27.51h0Z"/>
    <path id="fin3-2" class="cls-1" d="M693.04,21.37c-.12,19.71-2.35,39.3-3.91,58.93-2.13,26.4-4.75,52.76-7,79.16-.6,6.97-1.23,9.22-5.48,9.13-11.15-2.22-22.6-3.46-34.3-3.71-.88-1.09-1.2-2.78-.88-5.38,1.38-11.26,1.99-22.62,3.04-34.63,2.81-34.64,5.4-68.59,8.29-102.53,1.35-15.91,9.87-23.88,22.82-22.08,11.04,1.53,17.49,9.31,17.42,21.11h0Z"/>
    <path id="fin2-2" class="cls-1" d="M606.88,163.14c.04,1.58.02,3.09-.53,4.25-12.24,1.99-24.15,5.11-35.6,9.26-2.33-22.78-3.15-44.56-3.66-67.04-.78-20.91-1.46-41.11-2.08-61.32-.04-1.75.33-3.51.58-5.27,1.44-10.16,8.05-17.33,16.49-17.93,9.4-.65,18.07,5.49,19.67,16.24,1.89,12.68,2.31,25.62,2.76,38.47.98,27.78,1.55,55.56,2.37,83.34h0Z"/>
    <polygon id="H-2" class="cls-1" points="430.25 169.32 430.25 562.03 332.53 562.03 332.53 415.69 97.72 415.69 97.72 562.03 0 562.03 0 169.32 97.72 169.32 97.72 315.67 332.53 315.67 332.53 169.32 430.25 169.32"/>
    <path id="A-2" class="cls-1" d="M1029.88,174.17l-2.18-5.44-88.81.99-3.59,8.23-166.15,381.35h92.83l36.4-83.48h153.53l32.68,83.48h98.78l-153.49-385.12h0ZM935.98,389.55l43.28-99.29,38.87,99.29h-82.15Z"/>
  </g>
  <g>
    <path class="cls-1" d="M41.05,705.49v-68.65h18.92v26.62h29.08v-26.62h18.92v68.65h-18.92v-28.29h-29.08v28.29h-18.92Z"/>
    <path class="cls-1" d="M117.7,705.49l27.23-68.65h25.37l27.23,68.65h-19.79l-4.7-12.52h-30.83l-4.7,12.52h-19.79ZM147.44,679.23h20.45l-10.27-26.99-10.17,26.99h0Z"/>
    <path class="cls-1" d="M207.26,705.49v-68.65h17.38l32.37,40.91v-40.91h18.7v68.65h-17.49l-32.15-39.33v39.33h-18.81,0Z"/>
    <path class="cls-1" d="M289.71,705.49v-68.65h32.04c6.63,0,12.47.97,17.49,2.92,5.03,1.95,9.2,4.56,12.52,7.84,3.32,3.27,5.81,6.96,7.49,11.04,1.68,4.08,2.52,8.25,2.52,12.52s-.84,8.44-2.52,12.52-4.18,7.76-7.49,11.04c-3.32,3.27-7.49,5.89-12.52,7.84-5.03,1.95-10.86,2.92-17.49,2.92h-32.04ZM320.87,650.94h-12.25v40.26h12.25c5.03,0,9.17-.99,12.41-2.97,3.25-1.98,5.63-4.5,7.16-7.56,1.53-3.06,2.3-6.29,2.3-9.7s-.77-6.46-2.3-9.55c-1.53-3.09-3.91-5.61-7.16-7.56s-7.38-2.92-12.41-2.92Z"/>
    <path class="cls-1" d="M403.87,706.41c-5.47,0-10.11-.54-13.95-1.62-3.83-1.08-7-2.49-9.52-4.22s-4.52-3.55-6.02-5.48c-1.5-1.91-2.59-3.74-3.28-5.48-.69-1.73-1.25-3.68-1.7-5.85h19.13c.59,1.91,1.4,3.49,2.46,4.73,1.06,1.24,2.66,2.34,4.81,3.29s5.05,1.43,8.7,1.43c4.52,0,7.79-.78,9.79-2.32s3-3.31,3-5.29c0-1.8-.75-3.21-2.24-4.27-1.5-1.06-3.92-1.86-7.27-2.41l-10.83-1.58c-4.52-.68-8.77-1.76-12.74-3.25-3.98-1.49-7.18-3.58-9.63-6.31s-3.66-6.24-3.66-10.57,1.25-7.99,3.77-11.18,6.11-5.67,10.77-7.47,10.17-2.69,16.51-2.69c4.95,0,9.18.51,12.68,1.53s6.41,2.32,8.75,3.9,4.21,3.25,5.63,5.01c1.42,1.76,2.48,3.45,3.17,5.05.69,1.61,1.25,3.4,1.7,5.38h-18.7c-.51-1.54-1.23-2.83-2.14-3.85s-2.28-1.93-4.1-2.73c-1.82-.8-4.3-1.21-7.43-1.21-4.38,0-7.48.78-9.29,2.36s-2.73,3.23-2.73,4.96c0,1.92,1,3.37,3,4.36,2,.99,4.54,1.73,7.6,2.23l11.48,1.67c4.45.68,8.53,1.82,12.25,3.43,3.72,1.61,6.7,3.77,8.97,6.5,2.26,2.72,3.39,6.09,3.39,10.11s-1.25,7.87-3.77,11.18-6.18,5.91-10.99,7.79-10.68,2.83-17.61,2.83v.02Z"/>
    <path class="cls-1" d="M535.31,706.41c-6.93,0-12.98-1-18.15-3.01-5.18-2.01-9.5-4.7-12.95-8.07-3.46-3.37-6.07-7.15-7.82-11.37-1.75-4.2-2.63-8.5-2.63-12.89s.88-8.67,2.63-12.85,4.36-7.93,7.82-11.27,7.78-6.02,12.95-8.03c5.18-2.01,11.22-3.01,18.15-3.01s12.86,1.01,18.04,3.01c5.18,2.01,9.49,4.68,12.95,8.03,3.46,3.34,6.07,7.1,7.82,11.27s2.63,8.46,2.63,12.85-.88,8.69-2.63,12.89-4.36,7.99-7.82,11.37-7.79,6.06-12.95,8.07c-5.18,2.01-11.2,3.01-18.04,3.01ZM535.31,692.03c4.74,0,8.73-1.02,11.97-3.06s5.68-4.65,7.33-7.84c1.64-3.18,2.46-6.54,2.46-10.07s-.82-6.78-2.46-9.97-4.09-5.8-7.33-7.84c-3.25-2.04-7.23-3.06-11.97-3.06s-8.84,1.02-12.08,3.06c-3.25,2.04-5.67,4.65-7.27,7.84-1.61,3.18-2.41,6.51-2.41,9.97s.8,6.88,2.41,10.07,4.02,5.8,7.27,7.84c3.24,2.04,7.27,3.06,12.08,3.06Z"/>
    <path class="cls-1" d="M587.58,705.49v-68.65h57.52v13.91h-38.6v16.42h33.68v13.36h-33.68v24.95h-18.92,0Z"/>
    <path class="cls-1" d="M704.36,705.49l27.23-68.65h25.37l27.23,68.65h-19.79l-4.7-12.52h-30.83l-4.7,12.52h-19.79ZM734.1,679.23h20.45l-10.28-26.99-10.17,26.99h0Z"/>
    <path class="cls-1" d="M827.93,706.41c-6.71,0-12.61-1-17.72-3.01s-9.35-4.7-12.74-8.07c-3.39-3.37-5.94-7.15-7.66-11.37-1.71-4.2-2.57-8.5-2.57-12.89s.86-8.6,2.57-12.8c1.71-4.2,4.27-7.97,7.66-11.32s7.63-6.02,12.74-8.03,11.01-3.01,17.72-3.01c5.76,0,10.66.6,14.7,1.8s7.43,2.78,10.17,4.74c2.73,1.95,4.92,3.99,6.56,6.13s2.86,4.16,3.66,6.08,1.46,4.11,1.97,6.59h-18.7c-.8-2.23-1.8-4.07-3-5.52s-3-2.73-5.41-3.85c-2.41-1.11-5.65-1.67-9.73-1.67-4.74,0-8.7,1.02-11.86,3.06s-5.54,4.65-7.11,7.84c-1.57,3.18-2.35,6.51-2.35,9.97s.78,6.8,2.35,10.02c1.57,3.22,3.93,5.85,7.11,7.88s7.13,3.06,11.86,3.06c4.08,0,7.33-.56,9.73-1.67s4.21-2.38,5.41-3.81,2.2-3.25,3-5.48h18.7c-.51,2.41-1.16,4.59-1.97,6.54s-2.02,3.99-3.66,6.13-3.83,4.18-6.56,6.13-6.13,3.53-10.17,4.74-8.95,1.8-14.7,1.8h0Z"/>
    <path class="cls-1" d="M893.32,705.49v-54.73h-24.6v-13.91h68.24v13.91h-24.6v54.73h-19.03Z"/>
    <path class="cls-1" d="M947.99,705.49v-68.65h18.92v68.65h-18.92Z"/>
    <path class="cls-1" d="M1019.3,706.41c-6.93,0-12.98-1-18.15-3.01-5.18-2.01-9.5-4.7-12.95-8.07-3.46-3.37-6.07-7.15-7.82-11.37-1.75-4.2-2.63-8.5-2.63-12.89s.88-8.67,2.63-12.85,4.36-7.93,7.82-11.27,7.78-6.02,12.95-8.03c5.18-2.01,11.22-3.01,18.15-3.01s12.86,1.01,18.04,3.01c5.18,2.01,9.49,4.68,12.95,8.03,3.46,3.34,6.07,7.1,7.82,11.27s2.63,8.46,2.63,12.85-.88,8.69-2.63,12.89-4.36,7.99-7.82,11.37-7.79,6.06-12.95,8.07c-5.18,2.01-11.2,3.01-18.04,3.01ZM1019.3,692.03c4.74,0,8.73-1.02,11.97-3.06s5.68-4.65,7.33-7.84c1.64-3.18,2.46-6.54,2.46-10.07s-.82-6.78-2.46-9.97-4.09-5.8-7.33-7.84c-3.25-2.04-7.23-3.06-11.97-3.06s-8.84,1.02-12.08,3.06c-3.25,2.04-5.67,4.65-7.27,7.84-1.61,3.18-2.41,6.51-2.41,9.97s.8,6.88,2.41,10.07,4.02,5.8,7.27,7.84c3.24,2.04,7.27,3.06,12.08,3.06Z"/>
    <path class="cls-1" d="M1071.56,705.49v-68.65h17.38l32.37,40.91v-40.91h18.7v68.65h-17.5l-32.15-39.33v39.33h-18.81,0Z"/>
  </g>
</svg>